# xmcd
#
# Track frame offsets:
#	150
#	20025
#	34425
#	46875
#	64950
#	80100
#	102525
#	118775
#	133650
#	149475
#
# Disc length: 2256 seconds
# Revision: 0
# Processed by: cddbd v1.5.2PL0 Copyright (c) Steve Scherf et al.
# Submitted via: dBpowerAMP V12.0
#
DISCID=9d08ce0a
DTITLE=Steve Grace - Heritage
DYEAR=2009
DGENRE=Country
TTITLE0=How Great Thou Art
TTITLE1=Down at the Cross
TTITLE2=Solid Rock
TTITLE3=Nothing But The Blood
TTITLE4=My Jesus I Love Thee
TTITLE5=It Is Well With my Soul
TTITLE6=Turn Your Eyes Upon Jesus
TTITLE7=I'll Fly Away
TTITLE8=Amazing Grace
TTITLE9=More Than Ever
EXTD=
EXTT0=
EXTT1=
EXTT2=
EXTT3=
EXTT4=
EXTT5=
EXTT6=
EXTT7=
EXTT8=
EXTT9=
PLAYORDER=
